<svg width="32" height="32" viewBox="0 0 32 32" fill="none" xmlns="http://www.w3.org/2000/svg">
<path d="M24.9465 26C23.8398 27.6533 22.6665 29.2666 20.8798 29.2933C19.0932 29.3333 18.5198 28.24 16.4932 28.24C14.4532 28.24 13.8265 29.2666 12.1331 29.3333C10.3865 29.4 9.06646 27.5733 7.94646 25.96C5.66646 22.6666 3.9198 16.6 6.26646 12.52C7.42646 10.4933 9.50646 9.21329 11.7598 9.17329C13.4665 9.14663 15.0932 10.3333 16.1465 10.3333C17.1865 10.3333 19.1598 8.90663 21.2265 9.11996C22.0932 9.15996 24.5198 9.46663 26.0798 11.76C25.9598 11.84 23.1865 13.4666 23.2132 16.84C23.2532 20.8666 26.7465 22.2133 26.7865 22.2266C26.7465 22.32 26.2265 24.1466 24.9465 26ZM17.3332 4.66663C18.3065 3.55996 19.9198 2.71996 21.2532 2.66663C21.4265 4.22663 20.7998 5.79996 19.8665 6.91996C18.9465 8.05329 17.4265 8.93329 15.9332 8.81329C15.7332 7.27996 16.4798 5.67996 17.3332 4.66663Z" fill="#0B0D10"/>
</svg>
