<svg width="120" height="32" viewBox="0 0 120 32" fill="none" xmlns="http://www.w3.org/2000/svg">
<g clip-path="url(#clip0_6107_984)">
<path d="M1.56445 8.5H5.73633L10.1426 19.25H10.3301L14.7363 8.5H18.9082V24.5H15.627V14.0859H15.4941L11.3535 24.4219H9.11914L4.97852 14.0469H4.8457V24.5H1.56445V8.5ZM21.8828 24.5V12.5H25.2109V24.5H21.8828ZM23.5547 10.9531C23.0599 10.9531 22.6354 10.7891 22.2813 10.4609C21.9323 10.1276 21.7578 9.72917 21.7578 9.26562C21.7578 8.80729 21.9323 8.41406 22.2813 8.08594C22.6354 7.7526 23.0599 7.58594 23.5547 7.58594C24.0495 7.58594 24.4714 7.7526 24.8203 8.08594C25.1745 8.41406 25.3516 8.80729 25.3516 9.26562C25.3516 9.72917 25.1745 10.1276 24.8203 10.4609C24.4714 10.7891 24.0495 10.9531 23.5547 10.9531ZM28.1895 8.5H32.3613L36.7676 19.25H36.9551L41.3613 8.5H45.5332V24.5H42.252V14.0859H42.1191L37.9785 24.4219H35.7441L31.6035 14.0469H31.4707V24.5H28.1895V8.5ZM48.5078 24.5V12.5H51.8359V24.5H48.5078ZM50.1797 10.9531C49.6849 10.9531 49.2604 10.7891 48.9063 10.4609C48.5573 10.1276 48.3828 9.72917 48.3828 9.26562C48.3828 8.80729 48.5573 8.41406 48.9063 8.08594C49.2604 7.7526 49.6849 7.58594 50.1797 7.58594C50.6745 7.58594 51.0964 7.7526 51.4453 8.08594C51.7995 8.41406 51.9766 8.80729 51.9766 9.26562C51.9766 9.72917 51.7995 10.1276 51.4453 10.4609C51.0964 10.7891 50.6745 10.9531 50.1797 10.9531Z" fill="#00D0FF"/>
<path d="M63.4941 13.1016C63.4316 12.4714 63.1634 11.9818 62.6895 11.6328C62.2155 11.2839 61.5723 11.1094 60.7598 11.1094C60.2077 11.1094 59.7415 11.1875 59.3613 11.3437C58.9811 11.4948 58.6895 11.7057 58.4863 11.9766C58.2884 12.2474 58.1895 12.5547 58.1895 12.8984C58.179 13.1849 58.2389 13.4349 58.3691 13.6484C58.5046 13.862 58.6895 14.0469 58.9238 14.2031C59.1582 14.3542 59.429 14.487 59.7363 14.6016C60.0436 14.7109 60.3717 14.8047 60.7207 14.8828L62.1582 15.2266C62.8561 15.3828 63.4967 15.5911 64.0801 15.8516C64.6634 16.112 65.1686 16.4323 65.5957 16.8125C66.0228 17.1927 66.3535 17.6406 66.5879 18.1562C66.8275 18.6719 66.9499 19.263 66.9551 19.9297C66.9499 20.9089 66.6999 21.7578 66.2051 22.4766C65.7155 23.1901 65.0072 23.7448 64.0801 24.1406C63.1582 24.5312 62.0462 24.7266 60.7441 24.7266C59.4525 24.7266 58.3275 24.5286 57.3691 24.1328C56.416 23.737 55.6712 23.151 55.1348 22.375C54.6035 21.5937 54.3249 20.6276 54.2988 19.4766H57.5723C57.6087 20.013 57.7624 20.4609 58.0332 20.8203C58.3092 21.1745 58.6764 21.4427 59.1348 21.625C59.5983 21.8021 60.1217 21.8906 60.7051 21.8906C61.278 21.8906 61.7754 21.8073 62.1973 21.6406C62.6243 21.474 62.9551 21.2422 63.1895 20.9453C63.4238 20.6484 63.541 20.3073 63.541 19.9219C63.541 19.5625 63.4342 19.2604 63.2207 19.0156C63.0124 18.7708 62.7051 18.5625 62.2988 18.3906C61.8978 18.2187 61.4056 18.0625 60.8223 17.9219L59.0801 17.4844C57.7311 17.1562 56.666 16.6432 55.8848 15.9453C55.1035 15.2474 54.7155 14.3073 54.7207 13.125C54.7155 12.1562 54.9733 11.3099 55.4941 10.5859C56.0202 9.86198 56.7415 9.29687 57.6582 8.89062C58.5749 8.48437 59.6165 8.28125 60.7832 8.28125C61.9707 8.28125 63.0072 8.48437 63.8926 8.89062C64.7832 9.29687 65.4759 9.86198 65.9707 10.5859C66.4655 11.3099 66.7207 12.1484 66.7363 13.1016H63.4941ZM69.418 24.5V12.5H72.5898V14.6172H72.7305C72.9805 13.9141 73.3971 13.3594 73.9805 12.9531C74.5638 12.5469 75.2617 12.3438 76.0742 12.3438C76.8971 12.3438 77.5977 12.5495 78.1758 12.9609C78.7539 13.3672 79.1393 13.9193 79.332 14.6172H79.457C79.7018 13.9297 80.1445 13.3802 80.7852 12.9687C81.431 12.5521 82.194 12.3438 83.0742 12.3438C84.194 12.3438 85.1029 12.7005 85.8008 13.4141C86.5039 14.1224 86.8555 15.1276 86.8555 16.4297V24.5H83.5352V17.0859C83.5352 16.4193 83.3581 15.9193 83.0039 15.5859C82.6497 15.2526 82.207 15.0859 81.6758 15.0859C81.0716 15.0859 80.6003 15.2786 80.2617 15.6641C79.9232 16.0443 79.7539 16.5469 79.7539 17.1719V24.5H76.5273V17.0156C76.5273 16.4271 76.3581 15.9583 76.0195 15.6094C75.6862 15.2604 75.2461 15.0859 74.6992 15.0859C74.3294 15.0859 73.9961 15.1797 73.6992 15.3672C73.4076 15.5495 73.1758 15.8073 73.0039 16.1406C72.832 16.4687 72.7461 16.8542 72.7461 17.2969V24.5H69.418ZM93.1563 24.7266C92.3906 24.7266 91.7083 24.5938 91.1094 24.3281C90.5104 24.0573 90.0365 23.6589 89.6875 23.1328C89.3438 22.6016 89.1719 21.9401 89.1719 21.1484C89.1719 20.4818 89.2943 19.9219 89.5391 19.4687C89.7839 19.0156 90.1172 18.651 90.5391 18.375C90.9609 18.099 91.4401 17.8906 91.9766 17.75C92.5182 17.6094 93.0859 17.5104 93.6797 17.4531C94.3776 17.3802 94.9401 17.3125 95.3672 17.25C95.7943 17.1823 96.1042 17.0833 96.2969 16.9531C96.4896 16.8229 96.5859 16.6302 96.5859 16.375V16.3281C96.5859 15.8333 96.4297 15.4505 96.1172 15.1797C95.8099 14.9089 95.3724 14.7734 94.8047 14.7734C94.2057 14.7734 93.7292 14.9062 93.375 15.1719C93.0208 15.4323 92.7865 15.7604 92.6719 16.1562L89.5938 15.9062C89.75 15.1771 90.0573 14.5469 90.5156 14.0156C90.974 13.4792 91.5651 13.0677 92.2891 12.7812C93.0182 12.4896 93.862 12.3438 94.8203 12.3438C95.487 12.3438 96.125 12.4219 96.7344 12.5781C97.349 12.7344 97.8932 12.9766 98.3672 13.3047C98.8464 13.6328 99.224 14.0547 99.5 14.5703C99.776 15.0807 99.9141 15.6927 99.9141 16.4062V24.5H96.7578V22.8359H96.6641C96.4714 23.2109 96.2135 23.5417 95.8906 23.8281C95.5677 24.1094 95.1797 24.3307 94.7266 24.4922C94.2734 24.6484 93.75 24.7266 93.1563 24.7266ZM94.1094 22.4297C94.599 22.4297 95.0313 22.3333 95.4062 22.1406C95.7812 21.9427 96.0755 21.6771 96.2891 21.3438C96.5026 21.0104 96.6094 20.6328 96.6094 20.2109V18.9375C96.5052 19.0052 96.362 19.0677 96.1797 19.125C96.0026 19.1771 95.8021 19.2266 95.5781 19.2734C95.3542 19.3151 95.1302 19.3542 94.9063 19.3906C94.6823 19.4219 94.4792 19.4505 94.2969 19.4766C93.9063 19.5339 93.5651 19.625 93.2734 19.75C92.9818 19.875 92.7552 20.0443 92.5938 20.2578C92.4323 20.4661 92.3516 20.7266 92.3516 21.0391C92.3516 21.4922 92.5156 21.8385 92.8438 22.0781C93.1771 22.3125 93.599 22.4297 94.1094 22.4297ZM102.746 24.5V12.5H105.973V14.5937H106.098C106.316 13.849 106.684 13.2865 107.199 12.9063C107.715 12.5208 108.309 12.3281 108.98 12.3281C109.147 12.3281 109.327 12.3385 109.52 12.3594C109.712 12.3802 109.882 12.4089 110.027 12.4453V15.3984C109.871 15.3516 109.655 15.3099 109.379 15.2734C109.103 15.237 108.85 15.2188 108.621 15.2188C108.132 15.2188 107.694 15.3255 107.309 15.5391C106.928 15.7474 106.626 16.0391 106.402 16.4141C106.184 16.7891 106.074 17.2214 106.074 17.7109V24.5H102.746ZM118.982 12.5V15H111.756V12.5H118.982ZM113.396 9.625H116.725V20.8125C116.725 21.1198 116.771 21.3594 116.865 21.5312C116.959 21.6979 117.089 21.8151 117.256 21.8828C117.428 21.9505 117.626 21.9844 117.85 21.9844C118.006 21.9844 118.162 21.9714 118.318 21.9453C118.475 21.9141 118.594 21.8906 118.678 21.875L119.201 24.3516C119.035 24.4036 118.8 24.4635 118.498 24.5313C118.196 24.6042 117.829 24.6484 117.396 24.6641C116.594 24.6953 115.891 24.5885 115.287 24.3437C114.688 24.099 114.222 23.7187 113.889 23.2031C113.555 22.6875 113.391 22.0365 113.396 21.25V9.625Z" fill="#262626"/>
</g>
<defs>
<clipPath id="clip0_6107_984">
<rect width="120" height="32" fill="white"/>
</clipPath>
</defs>
</svg>
