<svg width="24" height="24" viewBox="0 0 24 24" fill="none" xmlns="http://www.w3.org/2000/svg">
<g clip-path="url(#clip0_4516_20583)">
<path d="M12 23.5394C18.629 23.5394 24 18.1684 24 11.5394C24 4.91043 18.629 -0.460571 12 -0.460571C5.371 -0.460571 0 4.91043 0 11.5394C0 18.1684 5.371 23.5394 12 23.5394ZM5.491 11.2794L17.061 6.81843C17.598 6.62443 18.067 6.94943 17.893 7.76143L17.894 7.76043L15.924 17.0414C15.778 17.6994 15.387 17.8594 14.84 17.5494L11.84 15.3384L10.393 16.7324C10.233 16.8924 10.098 17.0274 9.788 17.0274L10.001 13.9744L15.561 8.95143C15.803 8.73843 15.507 8.61843 15.188 8.83043L8.317 13.1564L5.355 12.2324C4.712 12.0284 4.698 11.5894 5.491 11.2794Z" fill="#478BEB"/>
</g>
<defs>
<clipPath id="clip0_4516_20583">
<rect width="24" height="24" fill="white"/>
</clipPath>
</defs>
</svg>
