<svg width="24" height="24" viewBox="0 0 24 24" fill="none" xmlns="http://www.w3.org/2000/svg">
<g clip-path="url(#clip0_4516_20589)">
<path d="M0 11.0594C0 5.62883 0 2.91356 1.68707 1.22649C3.37413 -0.460571 6.0894 -0.460571 11.52 -0.460571H12.48C17.9106 -0.460571 20.6259 -0.460571 22.313 1.22649C24 2.91356 24 5.62883 24 11.0594V12.0194C24 17.45 24 20.1653 22.313 21.8524C20.6259 23.5394 17.9106 23.5394 12.48 23.5394H11.52C6.0894 23.5394 3.37413 23.5394 1.68707 21.8524C0 20.1653 0 17.45 0 12.0194V11.0594Z" fill="#478BEB"/>
<path d="M12.7702 16.8291C7.30024 16.8291 4.18029 13.0791 4.05029 6.83911H6.79029C6.88029 11.4191 8.90024 13.3591 10.5002 13.7591V6.83911H13.0803V10.7891C14.6603 10.6191 16.3201 8.81911 16.8801 6.83911H19.4602C19.0302 9.27911 17.2302 11.0791 15.9502 11.8191C17.2302 12.4191 19.2803 13.9891 20.0603 16.8291H17.2202C16.6102 14.9291 15.0903 13.4591 13.0803 13.2591V16.8291H12.7702Z" fill="#F4F4F4"/>
</g>
<defs>
<clipPath id="clip0_4516_20589">
<rect width="24" height="24" fill="white"/>
</clipPath>
</defs>
</svg>
