<svg width="24" height="24" viewBox="0 0 24 24" fill="none" xmlns="http://www.w3.org/2000/svg">
<path d="M11.9874 19.8152C11.9874 19.8152 19.5058 19.8152 21.3707 19.3186C22.4207 19.0372 23.2104 18.2262 23.4876 17.2248C24 15.3876 24 11.5227 24 11.5227C24 11.5227 24 7.68274 23.4876 5.86205C23.2104 4.83584 22.4207 4.04136 21.3707 3.76825C19.5058 3.26343 11.9874 3.26343 11.9874 3.26343C11.9874 3.26343 4.48582 3.26343 2.62933 3.76825C1.59608 4.04136 0.78964 4.83584 0.495625 5.86205C1.41104e-07 7.68274 0 11.5227 0 11.5227C0 11.5227 1.41104e-07 15.3876 0.495625 17.2248C0.78964 18.2262 1.59608 19.0372 2.62933 19.3186C4.48582 19.8152 11.9874 19.8152 11.9874 19.8152Z" fill="#478BEB"/>
<path d="M15.7245 11.5398L9.51758 8.02258V15.0571L15.7245 11.5398Z" fill="#F4F4F4"/>
</svg>
